<?xml version="1.0" encoding="UTF-8"?>
<svg width="26px" height="32px" viewBox="0 0 26 32" version="1.1" xmlns="http://www.w3.org/2000/svg" xmlns:xlink="http://www.w3.org/1999/xlink">
    <title>形状</title>
    <g id="页面-1" stroke="none" stroke-width="1" fill="none" fill-rule="evenodd">
        <g id="在线验证-查询结果" transform="translate(-662.000000, -232.000000)" fill="#889098" fill-rule="nonzero">
            <g id="下载-m" transform="translate(662.000000, 232.000000)">
                <path d="M25.13875,6.67199999 L19.80875,1.02399999 C19.2075,0.368000002 18.33,0 17.43625,0 L3.25000001,0 C1.46250001,0 0,1.44000002 0,3.20000001 L0,28.8 C0,30.56 1.46250001,32 3.25000001,32 L22.75,32 C24.5375,32 26,30.56 26,28.8 L26,8.84800001 C26,8.04800002 25.69125,7.264 25.13875,6.67199999 Z M8.385,15.312 C8.64499999,15.056 8.97000001,14.944 9.31124999,14.944 C9.63625,14.944 9.97749998,15.072 10.2375,15.312 L11.7,16.752 L11.7,8.32000001 C11.7,7.616 12.285,7.03999999 13,7.03999999 C13.3575,7.03999999 13.6825,7.18399999 13.92625,7.40799999 C14.15375,7.64799999 14.3,7.96799998 14.3,8.32000001 L14.3,16.752 L15.7625,15.312 C16.26625,14.816 17.095,14.816 17.59875,15.312 C18.1025,15.808 18.1025,16.624 17.5825,17.12 L13.91,20.736 C13.8775,20.768 13.845,20.784 13.8125,20.816 C13.78,20.832 13.76375,20.864 13.73125,20.88 L13.715,20.88 C13.69875,20.88 13.69875,20.896 13.6825,20.896 C13.66625,20.912 13.63375,20.928 13.60125,20.944 L13.585,20.96 C13.5525,20.976 13.52,20.992 13.47125,21.008 C13.43875,21.024 13.40625,21.04 13.37375,21.04 L13.3575,21.04 C13.325,21.056 13.27625,21.056 13.24375,21.072 C13.195,21.088 13.1625,21.088 13.11375,21.088 L12.85375,21.088 C12.805,21.088 12.7725,21.072 12.72375,21.072 C12.675,21.072 12.6425,21.056 12.61,21.04 L12.59375,21.04 C12.56125,21.024 12.52875,21.008 12.49625,21.008 C12.46375,20.992 12.415,20.976 12.3825,20.96 C12.3825,20.96 12.36625,20.96 12.36625,20.944 C12.33375,20.928 12.3175,20.912 12.285,20.896 C12.26875,20.896 12.26875,20.88 12.2525,20.88 L12.23625,20.88 C12.20375,20.864 12.1875,20.832 12.155,20.816 C12.1225,20.784 12.09,20.768 12.0575,20.736 L8.385,17.12 C7.88125,16.624 7.88125,15.808 8.385,15.312 L8.385,15.312 Z M18.2,24.96 L7.80000002,24.96 C7.085,24.96 6.49999999,24.384 6.49999999,23.68 C6.49999999,22.976 7.085,22.4 7.80000002,22.4 L18.2,22.4 C18.915,22.4 19.5,22.976 19.5,23.68 C19.5,24.384 18.915,24.96 18.2,24.96 Z" id="形状"></path>
            </g>
        </g>
    </g>
</svg>